<mxfile host="app.diagrams.net" modified="2022-11-25T00:01:27.905Z" agent="5.0 (X11)" etag="oOh53tJVc8Mtwo-3kDbA" version="20.6.0" type="github">
  <diagram id="6a731a19-8d31-9384-78a2-239565b7b9f0" name="Page-1">
    <mxGraphModel dx="1350" dy="764" grid="1" gridSize="10" guides="1" tooltips="1" connect="1" arrows="1" fold="1" page="1" pageScale="1" pageWidth="1169" pageHeight="827" background="none" math="0" shadow="0">
      <root>
        <mxCell id="0" />
        <mxCell id="1" parent="0" />
        <mxCell id="RcRvpt3t4Wy0LcGU2YB8-1811" value="" style="rounded=0;whiteSpace=wrap;html=1;fontSize=30;fillColor=#dae8fc;strokeColor=#6c8ebf;" vertex="1" parent="1">
          <mxGeometry x="70" y="74" width="1080" height="740" as="geometry" />
        </mxCell>
        <mxCell id="1749" value="rllib Driver" style="rounded=1;whiteSpace=wrap;html=1;shadow=0;labelBackgroundColor=none;strokeColor=none;strokeWidth=3;fillColor=#6C8EBF;fontFamily=Helvetica;fontSize=16;fontColor=#FFFFFF;align=center;fontStyle=1;spacing=5;arcSize=7;perimeterSpacing=2;" parent="1" vertex="1">
          <mxGeometry x="140" y="409" width="120" height="70" as="geometry" />
        </mxCell>
        <mxCell id="1771" value="Rollout Worker Set" style="rounded=1;whiteSpace=wrap;html=1;shadow=0;labelBackgroundColor=none;strokeColor=none;strokeWidth=3;fillColor=#6C8EBF;fontFamily=Helvetica;fontSize=14;fontColor=#FFFFFF;align=center;spacing=5;fontStyle=1;arcSize=7;perimeterSpacing=2;" parent="1" vertex="1">
          <mxGeometry x="320" y="413.9999999999999" width="150" height="60" as="geometry" />
        </mxCell>
        <mxCell id="1772" value="CPU n" style="rounded=1;whiteSpace=wrap;html=1;shadow=0;labelBackgroundColor=none;strokeColor=default;strokeWidth=1;fillColor=#8FBCFC;fontFamily=Helvetica;fontSize=14;fontColor=#000000;align=center;spacing=5;fontStyle=0;arcSize=7;perimeterSpacing=2;" parent="1" vertex="1">
          <mxGeometry x="480" y="600" width="150" height="60" as="geometry" />
        </mxCell>
        <mxCell id="1773" value="" style="edgeStyle=none;rounded=1;jumpStyle=none;html=1;shadow=0;labelBackgroundColor=none;startArrow=none;startFill=0;jettySize=auto;orthogonalLoop=1;strokeColor=#000000;strokeWidth=3;fontFamily=Helvetica;fontSize=14;fontColor=#FFFFFF;spacing=5;fontStyle=1;fillColor=#b0e3e6;" parent="1" source="1771" target="1772" edge="1">
          <mxGeometry relative="1" as="geometry" />
        </mxCell>
        <mxCell id="1778" value="CPU 1" style="rounded=1;whiteSpace=wrap;html=1;shadow=0;labelBackgroundColor=none;strokeColor=default;strokeWidth=1;fillColor=#8FBCFC;fontFamily=Helvetica;fontSize=14;fontColor=#000000;align=center;spacing=5;fontStyle=0;arcSize=7;perimeterSpacing=2;" parent="1" vertex="1">
          <mxGeometry x="490" y="260" width="150" height="60" as="geometry" />
        </mxCell>
        <mxCell id="1779" value="" style="edgeStyle=none;rounded=1;jumpStyle=none;html=1;shadow=0;labelBackgroundColor=none;startArrow=none;startFill=0;jettySize=auto;orthogonalLoop=1;strokeColor=#000000;strokeWidth=3;fontFamily=Helvetica;fontSize=14;fontColor=#FFFFFF;spacing=5;fontStyle=1;fillColor=#b0e3e6;" parent="1" source="1771" target="1778" edge="1">
          <mxGeometry relative="1" as="geometry" />
        </mxCell>
        <mxCell id="kxRry2doFBvJN5kJtOzZ-1783" value="Core 1" style="rounded=1;whiteSpace=wrap;html=1;shadow=0;labelBackgroundColor=none;strokeColor=default;strokeWidth=1;fillColor=#8FBCFC;fontFamily=Helvetica;fontSize=14;fontColor=#000000;align=center;spacing=5;fontStyle=0;arcSize=7;perimeterSpacing=2;" parent="1" vertex="1">
          <mxGeometry x="650" y="170" width="110" height="50" as="geometry" />
        </mxCell>
        <mxCell id="kxRry2doFBvJN5kJtOzZ-1784" value="" style="edgeStyle=none;rounded=1;jumpStyle=none;html=1;shadow=0;labelBackgroundColor=none;startArrow=none;startFill=0;jettySize=auto;orthogonalLoop=1;strokeColor=#000000;strokeWidth=3;fontFamily=Helvetica;fontSize=14;fontColor=#FFFFFF;spacing=5;fontStyle=1;fillColor=#b0e3e6;" parent="1" source="1778" target="kxRry2doFBvJN5kJtOzZ-1783" edge="1">
          <mxGeometry relative="1" as="geometry">
            <mxPoint x="689.9984832904886" y="280.5" as="sourcePoint" />
            <mxPoint x="810" y="150" as="targetPoint" />
          </mxGeometry>
        </mxCell>
        <mxCell id="kxRry2doFBvJN5kJtOzZ-1785" value="" style="edgeStyle=none;rounded=1;jumpStyle=none;html=1;shadow=0;labelBackgroundColor=none;startArrow=none;startFill=0;jettySize=auto;orthogonalLoop=1;strokeColor=#000000;strokeWidth=3;fontFamily=Helvetica;fontSize=14;fontColor=#FFFFFF;spacing=5;fontStyle=1;fillColor=#b0e3e6;entryX=0;entryY=0.75;entryDx=0;entryDy=0;" parent="1" source="1778" target="kxRry2doFBvJN5kJtOzZ-1786" edge="1">
          <mxGeometry relative="1" as="geometry">
            <mxPoint x="737" y="230.004" as="sourcePoint" />
            <mxPoint x="830" y="192.98" as="targetPoint" />
          </mxGeometry>
        </mxCell>
        <mxCell id="kxRry2doFBvJN5kJtOzZ-1786" value="Core M" style="rounded=1;whiteSpace=wrap;html=1;shadow=0;labelBackgroundColor=none;strokeColor=default;strokeWidth=1;fillColor=#8FBCFC;fontFamily=Helvetica;fontSize=14;fontColor=#000000;align=center;spacing=5;fontStyle=0;arcSize=7;perimeterSpacing=2;" parent="1" vertex="1">
          <mxGeometry x="650" y="350" width="110" height="50" as="geometry" />
        </mxCell>
        <mxCell id="kxRry2doFBvJN5kJtOzZ-1791" value="MultiAgentEnv1" style="shape=delay;whiteSpace=wrap;html=1;strokeColor=default;strokeWidth=1;fontSize=20;fontColor=#000000;fillColor=#8FBCFC;gradientColor=none;opacity=25;" parent="1" vertex="1">
          <mxGeometry x="760" y="175" width="160" height="40" as="geometry" />
        </mxCell>
        <mxCell id="kxRry2doFBvJN5kJtOzZ-1792" value="MultiAgentEnvM" style="shape=delay;whiteSpace=wrap;html=1;strokeColor=default;strokeWidth=1;fontSize=20;fontColor=#000000;fillColor=#8FBCFC;gradientColor=none;opacity=25;" parent="1" vertex="1">
          <mxGeometry x="760" y="355" width="160" height="40" as="geometry" />
        </mxCell>
        <mxCell id="kxRry2doFBvJN5kJtOzZ-1797" value="&lt;div&gt;APE-xRainbow&lt;/div&gt;&lt;div&gt;+&lt;/div&gt;&lt;div&gt;BaselineAgent&lt;br&gt;&lt;/div&gt;" style="whiteSpace=wrap;html=1;aspect=fixed;strokeColor=default;strokeWidth=1;fontSize=20;fontColor=#000000;fillColor=#8FBCFC;gradientColor=none;opacity=25;" parent="1" vertex="1">
          <mxGeometry x="950" y="300" width="150" height="150" as="geometry" />
        </mxCell>
        <mxCell id="kxRry2doFBvJN5kJtOzZ-1798" value="&lt;div align=&quot;left&quot;&gt;1. Collect Rollouts &lt;br&gt;&lt;/div&gt;&lt;div align=&quot;left&quot;&gt;2. Send to driver &lt;br&gt;&lt;/div&gt;&lt;div align=&quot;left&quot;&gt;3. Batch for GPU training&lt;/div&gt;&lt;div align=&quot;left&quot;&gt;4. Update Policies&lt;br&gt;&lt;/div&gt;" style="text;html=1;align=left;verticalAlign=middle;resizable=0;points=[];autosize=1;strokeColor=none;fillColor=none;fontSize=20;fontColor=#000000;strokeWidth=1;opacity=25;" parent="1" vertex="1">
          <mxGeometry x="160" y="170" width="240" height="110" as="geometry" />
        </mxCell>
        <mxCell id="kxRry2doFBvJN5kJtOzZ-1799" style="edgeStyle=orthogonalEdgeStyle;rounded=0;orthogonalLoop=1;jettySize=auto;html=1;exitX=0;exitY=0;exitDx=0;exitDy=0;entryX=0;entryY=0.25;entryDx=0;entryDy=0;strokeColor=#000000;fontSize=20;fontColor=#000000;" parent="1" source="kxRry2doFBvJN5kJtOzZ-1792" target="kxRry2doFBvJN5kJtOzZ-1792" edge="1">
          <mxGeometry relative="1" as="geometry" />
        </mxCell>
        <mxCell id="RcRvpt3t4Wy0LcGU2YB8-1779" value="&lt;font size=&quot;1&quot;&gt;&lt;b style=&quot;font-size: 30px;&quot;&gt;prl_reinforce - rllib integration&lt;/b&gt;&lt;/font&gt;" style="text;html=1;align=center;verticalAlign=middle;resizable=0;points=[];autosize=1;strokeColor=none;fillColor=none;" vertex="1" parent="1">
          <mxGeometry x="70" y="10" width="450" height="50" as="geometry" />
        </mxCell>
        <mxCell id="RcRvpt3t4Wy0LcGU2YB8-1781" value="&lt;div&gt;APE-xRainbow&lt;/div&gt;&lt;div&gt;+&lt;/div&gt;&lt;div&gt;BaselineAgent&lt;br&gt;&lt;/div&gt;" style="whiteSpace=wrap;html=1;aspect=fixed;strokeColor=default;strokeWidth=1;fontSize=20;fontColor=#000000;fillColor=#8FBCFC;gradientColor=none;opacity=25;" vertex="1" parent="1">
          <mxGeometry x="950" y="120" width="150" height="150" as="geometry" />
        </mxCell>
        <mxCell id="RcRvpt3t4Wy0LcGU2YB8-1782" value="" style="endArrow=classic;startArrow=classic;html=1;rounded=0;fontSize=30;exitX=1;exitY=0.5;exitDx=0;exitDy=0;" edge="1" parent="1" source="kxRry2doFBvJN5kJtOzZ-1792" target="kxRry2doFBvJN5kJtOzZ-1797">
          <mxGeometry width="50" height="50" relative="1" as="geometry">
            <mxPoint x="560" y="420" as="sourcePoint" />
            <mxPoint x="610" y="370" as="targetPoint" />
          </mxGeometry>
        </mxCell>
        <mxCell id="RcRvpt3t4Wy0LcGU2YB8-1783" value="" style="endArrow=classic;startArrow=classic;html=1;rounded=0;fontSize=30;exitX=1;exitY=0.5;exitDx=0;exitDy=0;entryX=0;entryY=0.5;entryDx=0;entryDy=0;" edge="1" parent="1" source="kxRry2doFBvJN5kJtOzZ-1791" target="RcRvpt3t4Wy0LcGU2YB8-1781">
          <mxGeometry width="50" height="50" relative="1" as="geometry">
            <mxPoint x="930" y="385" as="sourcePoint" />
            <mxPoint x="960" y="385" as="targetPoint" />
          </mxGeometry>
        </mxCell>
        <mxCell id="RcRvpt3t4Wy0LcGU2YB8-1792" value="Core 1" style="rounded=1;whiteSpace=wrap;html=1;shadow=0;labelBackgroundColor=none;strokeColor=default;strokeWidth=1;fillColor=#8FBCFC;fontFamily=Helvetica;fontSize=14;fontColor=#000000;align=center;spacing=5;fontStyle=0;arcSize=7;perimeterSpacing=2;" vertex="1" parent="1">
          <mxGeometry x="650" y="680" width="110" height="50" as="geometry" />
        </mxCell>
        <mxCell id="RcRvpt3t4Wy0LcGU2YB8-1793" value="MultiAgentEnv1" style="shape=delay;whiteSpace=wrap;html=1;strokeColor=default;strokeWidth=1;fontSize=20;fontColor=#000000;fillColor=#8FBCFC;gradientColor=none;opacity=25;" vertex="1" parent="1">
          <mxGeometry x="760" y="685" width="160" height="40" as="geometry" />
        </mxCell>
        <mxCell id="RcRvpt3t4Wy0LcGU2YB8-1794" value="&lt;div&gt;APE-xRainbow&lt;/div&gt;&lt;div&gt;+&lt;/div&gt;&lt;div&gt;BaselineAgent&lt;br&gt;&lt;/div&gt;" style="whiteSpace=wrap;html=1;aspect=fixed;strokeColor=default;strokeWidth=1;fontSize=20;fontColor=#000000;fillColor=#8FBCFC;gradientColor=none;opacity=25;" vertex="1" parent="1">
          <mxGeometry x="950" y="630" width="150" height="150" as="geometry" />
        </mxCell>
        <mxCell id="RcRvpt3t4Wy0LcGU2YB8-1795" value="" style="endArrow=classic;startArrow=classic;html=1;rounded=0;fontSize=30;exitX=1;exitY=0.5;exitDx=0;exitDy=0;entryX=0;entryY=0.5;entryDx=0;entryDy=0;" edge="1" parent="1" source="RcRvpt3t4Wy0LcGU2YB8-1793" target="RcRvpt3t4Wy0LcGU2YB8-1794">
          <mxGeometry width="50" height="50" relative="1" as="geometry">
            <mxPoint x="930" y="895" as="sourcePoint" />
            <mxPoint x="960" y="895" as="targetPoint" />
          </mxGeometry>
        </mxCell>
        <mxCell id="RcRvpt3t4Wy0LcGU2YB8-1802" value="Core 1" style="rounded=1;whiteSpace=wrap;html=1;shadow=0;labelBackgroundColor=none;strokeColor=default;strokeWidth=1;fillColor=#8FBCFC;fontFamily=Helvetica;fontSize=14;fontColor=#000000;align=center;spacing=5;fontStyle=0;arcSize=7;perimeterSpacing=2;" vertex="1" parent="1">
          <mxGeometry x="650" y="510" width="110" height="50" as="geometry" />
        </mxCell>
        <mxCell id="RcRvpt3t4Wy0LcGU2YB8-1803" value="MultiAgentEnv1" style="shape=delay;whiteSpace=wrap;html=1;strokeColor=default;strokeWidth=1;fontSize=20;fontColor=#000000;fillColor=#8FBCFC;gradientColor=none;opacity=25;" vertex="1" parent="1">
          <mxGeometry x="760" y="515" width="160" height="40" as="geometry" />
        </mxCell>
        <mxCell id="RcRvpt3t4Wy0LcGU2YB8-1804" value="&lt;div&gt;APE-xRainbow&lt;/div&gt;&lt;div&gt;+&lt;/div&gt;&lt;div&gt;BaselineAgent&lt;br&gt;&lt;/div&gt;" style="whiteSpace=wrap;html=1;aspect=fixed;strokeColor=default;strokeWidth=1;fontSize=20;fontColor=#000000;fillColor=#8FBCFC;gradientColor=none;opacity=25;" vertex="1" parent="1">
          <mxGeometry x="950" y="460" width="150" height="150" as="geometry" />
        </mxCell>
        <mxCell id="RcRvpt3t4Wy0LcGU2YB8-1805" value="" style="endArrow=classic;startArrow=classic;html=1;rounded=0;fontSize=30;exitX=1;exitY=0.5;exitDx=0;exitDy=0;entryX=0;entryY=0.5;entryDx=0;entryDy=0;" edge="1" parent="1" source="RcRvpt3t4Wy0LcGU2YB8-1803" target="RcRvpt3t4Wy0LcGU2YB8-1804">
          <mxGeometry width="50" height="50" relative="1" as="geometry">
            <mxPoint x="930" y="725" as="sourcePoint" />
            <mxPoint x="960" y="725" as="targetPoint" />
          </mxGeometry>
        </mxCell>
        <mxCell id="RcRvpt3t4Wy0LcGU2YB8-1823" value="" style="endArrow=classic;html=1;rounded=0;fontSize=30;" edge="1" parent="1" target="1771">
          <mxGeometry width="50" height="50" relative="1" as="geometry">
            <mxPoint x="940" y="444" as="sourcePoint" />
            <mxPoint x="690" y="400" as="targetPoint" />
          </mxGeometry>
        </mxCell>
        <mxCell id="RcRvpt3t4Wy0LcGU2YB8-1806" value="" style="edgeStyle=none;rounded=1;jumpStyle=none;html=1;shadow=0;labelBackgroundColor=none;startArrow=none;startFill=0;jettySize=auto;orthogonalLoop=1;strokeColor=#000000;strokeWidth=3;fontFamily=Helvetica;fontSize=14;fontColor=#FFFFFF;spacing=5;fontStyle=1;fillColor=#b0e3e6;" edge="1" parent="1">
          <mxGeometry relative="1" as="geometry">
            <mxPoint x="599.9978947368421" y="596" as="sourcePoint" />
            <mxPoint x="653.0505263157894" y="560" as="targetPoint" />
          </mxGeometry>
        </mxCell>
        <mxCell id="RcRvpt3t4Wy0LcGU2YB8-1808" value="" style="edgeStyle=none;rounded=1;jumpStyle=none;html=1;shadow=0;labelBackgroundColor=none;startArrow=none;startFill=0;jettySize=auto;orthogonalLoop=1;strokeColor=#000000;strokeWidth=3;fontFamily=Helvetica;fontSize=14;fontColor=#FFFFFF;spacing=5;fontStyle=1;fillColor=#b0e3e6;entryX=0;entryY=0.25;entryDx=0;entryDy=0;" edge="1" parent="1" target="RcRvpt3t4Wy0LcGU2YB8-1792">
          <mxGeometry relative="1" as="geometry">
            <mxPoint x="600.0044670050761" y="658.5" as="sourcePoint" />
            <mxPoint x="656.04" y="725" as="targetPoint" />
          </mxGeometry>
        </mxCell>
        <mxCell id="RcRvpt3t4Wy0LcGU2YB8-1809" value="" style="endArrow=classic;startArrow=classic;html=1;rounded=0;fontSize=30;exitX=1;exitY=0.5;exitDx=0;exitDy=0;" edge="1" parent="1" source="1749" target="1771">
          <mxGeometry width="50" height="50" relative="1" as="geometry">
            <mxPoint x="270" y="500" as="sourcePoint" />
            <mxPoint x="320" y="450" as="targetPoint" />
          </mxGeometry>
        </mxCell>
        <mxCell id="RcRvpt3t4Wy0LcGU2YB8-1812" value="AWS VM - instances" style="text;html=1;align=center;verticalAlign=middle;resizable=0;points=[];autosize=1;strokeColor=none;fillColor=none;fontSize=30;" vertex="1" parent="1">
          <mxGeometry x="435" y="80" width="300" height="50" as="geometry" />
        </mxCell>
        <mxCell id="RcRvpt3t4Wy0LcGU2YB8-1815" value="1" style="text;html=1;align=center;verticalAlign=middle;resizable=0;points=[];autosize=1;strokeColor=none;fillColor=none;fontSize=30;" vertex="1" parent="1">
          <mxGeometry x="1060" y="120" width="40" height="50" as="geometry" />
        </mxCell>
        <mxCell id="RcRvpt3t4Wy0LcGU2YB8-1817" value="1" style="text;html=1;align=center;verticalAlign=middle;resizable=0;points=[];autosize=1;strokeColor=none;fillColor=none;fontSize=30;" vertex="1" parent="1">
          <mxGeometry x="1060" y="300" width="40" height="50" as="geometry" />
        </mxCell>
        <mxCell id="RcRvpt3t4Wy0LcGU2YB8-1818" value="1" style="text;html=1;align=center;verticalAlign=middle;resizable=0;points=[];autosize=1;strokeColor=none;fillColor=none;fontSize=30;" vertex="1" parent="1">
          <mxGeometry x="1060" y="460" width="40" height="50" as="geometry" />
        </mxCell>
        <mxCell id="RcRvpt3t4Wy0LcGU2YB8-1819" value="1" style="text;html=1;align=center;verticalAlign=middle;resizable=0;points=[];autosize=1;strokeColor=none;fillColor=none;fontSize=30;" vertex="1" parent="1">
          <mxGeometry x="1060" y="630" width="40" height="50" as="geometry" />
        </mxCell>
        <mxCell id="RcRvpt3t4Wy0LcGU2YB8-1820" value="" style="endArrow=none;html=1;rounded=0;fontSize=30;" edge="1" parent="1">
          <mxGeometry width="50" height="50" relative="1" as="geometry">
            <mxPoint x="940" y="710" as="sourcePoint" />
            <mxPoint x="940" y="190" as="targetPoint" />
          </mxGeometry>
        </mxCell>
        <mxCell id="RcRvpt3t4Wy0LcGU2YB8-1825" value="2" style="text;html=1;align=center;verticalAlign=middle;resizable=0;points=[];autosize=1;strokeColor=none;fillColor=none;fontSize=30;" vertex="1" parent="1">
          <mxGeometry x="535" y="400" width="40" height="50" as="geometry" />
        </mxCell>
        <mxCell id="RcRvpt3t4Wy0LcGU2YB8-1826" value="&lt;div&gt;3, 4&lt;/div&gt;" style="text;html=1;align=center;verticalAlign=middle;resizable=0;points=[];autosize=1;strokeColor=none;fillColor=none;fontSize=30;" vertex="1" parent="1">
          <mxGeometry x="165" y="355" width="70" height="50" as="geometry" />
        </mxCell>
      </root>
    </mxGraphModel>
  </diagram>
</mxfile>
